<svg xmlns="http://www.w3.org/2000/svg" width="1100" height="570" viewBox="0 0 1100 570"><rect width="100%" height="100%" fill="white"/><text x="550.0" y="28" text-anchor="middle" font-family="Arial" font-size="20" font-weight="bold">ROC Curves</text><text x="295.0" y="55" text-anchor="middle" font-family="Arial" font-size="15" font-weight="bold">4-hour horizon</text><line x1="60.0" y1="65" x2="60.0" y2="485" stroke="#eee" stroke-width="0.7"/><line x1="60" y1="485.0" x2="530" y2="485.0" stroke="#eee" stroke-width="0.7"/><text x="60.0" y="503" text-anchor="middle" font-family="Arial" font-size="9">0.0</text><text x="52" y="488.0" text-anchor="end" font-family="Arial" font-size="9">0.0</text><line x1="154.0" y1="65" x2="154.0" y2="485" stroke="#eee"/><line x1="60" y1="401.0" x2="530" y2="401.0" stroke="#eee"/><text x="154.0" y="503" text-anchor="middle" font-family="Arial" font-size="9">0.2</text><text x="52" y="404.0" text-anchor="end" font-family="Arial" font-size="9">0.2</text><line x1="248.0" y1="65" x2="248.0" y2="485" stroke="#eee"/><line x1="60" y1="317.0" x2="530" y2="317.0" stroke="#eee"/><text x="248.0" y="503" text-anchor="middle" font-family="Arial" font-size="9">0.4</text><text x="52" y="320.0" text-anchor="end" font-family="Arial" font-size="9">0.4</text><line x1="342" y1="65" x2="342" y2="485" stroke="#eee"/><line x1="60" y1="233" x2="530" y2="233" stroke="#eee"/><text x="342" y="503" text-anchor="middle" font-family="Arial" font-size="9">0.6</text><text x="52" y="236" text-anchor="end" font-family="Arial" font-size="9">0.6</text><line x1="436" y1="65" x2="436" y2="485" stroke="#eee"/><line x1="60" y1="149" x2="530" y2="149" stroke="#eee"/><text x="436" y="503" text-anchor="middle" font-family="Arial" font-size="9">0.8</text><text x="52" y="152" text-anchor="end" font-family="Arial" font-size="9">0.8</text><line x1="530" y1="65" x2="530" y2="485" stroke="#eee"/><line x1="60" y1="65" x2="530" y2="65" stroke="#eee"/><text x="530" y="503" text-anchor="middle" font-family="Arial" font-size="9">1.0</text><text x="52" y="68" text-anchor="end" font-family="Arial" font-size="9">1.0</text><polyline points="108.3,112.0 116.5,112.0 125.6,238.2 134.7,238.2 143.8,364.4 152.9,364.4 176.6,345.3 185.7,291.8 194.8,291.8 203.9,291.8 213.0,291.8 222.1,291.8 273.1,255.4 283.2,219.1 292.3,219.1 301.4,219.1 310.5,219.1 350.6,200.5 359.7,183.7 372.4,147.4 381.5,111.1 390.6,111.1 399.7,111.1 408.9,111.1 418.0,111.1" fill="none" stroke="#1f77b4" stroke-width="2"/><polyline points="108.3,131.6 116.5,131.6 124.7,131.6 133.8,131.6 166.6,364.4 175.7,364.4 183.9,364.4 193.0,364.4 201.2,328.1 210.3,328.1 218.5,328.1 227.6,291.8 235.8,291.8 244.0,291.8 253.1,291.8 261.3,291.8 270.4,291.8 290.4,292.2 320.5,255.4 328.7,255.0 369.7,183.7 377.9,183.7 407.9,183.7 422.5,111.1 431.6,111.1" fill="none" stroke="#ff7f0e" stroke-width="2"/><polyline points="108.3,151.1 120.1,151.1 132.0,151.1 153.8,437.0 165.7,437.0 177.5,437.0 189.3,437.0 201.2,437.0 213.0,437.0 224.9,437.0 236.7,437.0 248.5,437.0 260.4,400.7 272.2,364.4 284.1,255.4 295.9,255.4 307.8,255.4 319.6,236.8 331.4,219.1 343.3,219.1 355.1,219.1 367.0,219.1 381.5,200.0 393.4,183.7 432.5,128.8" fill="none" stroke="#2ca02c" stroke-width="2"/><polyline points="108.3,170.7 123.8,303.9 140.2,437.0 156.6,400.7 175.7,400.7 192.1,400.7 208.5,364.4 224.0,364.4 240.3,364.4 256.7,364.4 273.1,328.1 289.5,328.1 305.9,328.1 321.4,291.8 337.8,291.8 354.2,291.8 370.6,291.8 387.0,291.8 403.4,183.7 418.9,147.4 435.3,111.1 451.7,111.1 468.1,111.1 484.5,111.1 502.7,111.1" fill="none" stroke="#d62728" stroke-width="2"/><rect x="60" y="65" width="470" height="420" fill="none" stroke="#333"/><text x="295" y="523" text-anchor="middle" font-family="Arial" font-size="12">False Positive Rate</text><text x="15" y="275" text-anchor="middle" font-family="Arial" font-size="12" transform="rotate(-90 15 275)">True Positive Rate</text><line x1="75" y1="85" x2="95" y2="85" stroke="#1f77b4" stroke-width="3"/><text x="102" y="89" font-family="Arial" font-size="10">RNN (0.656)</text><line x1="75" y1="107" x2="95" y2="107" stroke="#ff7f0e" stroke-width="3"/><text x="102" y="111" font-family="Arial" font-size="10">LSTM (0.566)</text><line x1="75" y1="129" x2="95" y2="129" stroke="#2ca02c" stroke-width="3"/><text x="102" y="133" font-family="Arial" font-size="10">CNN-Transformer (0.475)</text><line x1="75" y1="151" x2="95" y2="151" stroke="#d62728" stroke-width="3"/><text x="102" y="155" font-family="Arial" font-size="10">LSTM-Transformer (0.452)</text><text x="825" y="55" text-anchor="middle" font-family="Arial" font-size="15" font-weight="bold">8-hour horizon</text><line x1="590" y1="65" x2="590" y2="485" stroke="#eee"/><line x1="590" y1="485" x2="1060" y2="485" stroke="#eee"/><line x1="684" y1="65" x2="684" y2="485" stroke="#eee"/><line x1="590" y1="401" x2="1060" y2="401" stroke="#eee"/><line x1="778" y1="65" x2="778" y2="485" stroke="#eee"/><line x1="590" y1="317" x2="1060" y2="317" stroke="#eee"/><line x1="872" y1="65" x2="872" y2="485" stroke="#eee"/><line x1="590" y1="233" x2="1060" y2="233" stroke="#eee"/><line x1="966" y1="65" x2="966" y2="485" stroke="#eee"/><line x1="590" y1="149" x2="1060" y2="149" stroke="#eee"/><line x1="1060" y1="65" x2="1060" y2="485" stroke="#eee"/><line x1="590" y1="65" x2="1060" y2="65" stroke="#eee"/><text x="590" y="503" text-anchor="middle" font-family="Arial" font-size="9">0.0</text><text x="684" y="503" text-anchor="middle" font-family="Arial" font-size="9">0.2</text><text x="778" y="503" text-anchor="middle" font-family="Arial" font-size="9">0.4</text><text x="872" y="503" text-anchor="middle" font-family="Arial" font-size="9">0.6</text><text x="966" y="503" text-anchor="middle" font-family="Arial" font-size="9">0.8</text><text x="1060" y="503" text-anchor="middle" font-family="Arial" font-size="9">1.0</text><polyline points="638.3,112.0 645.6,112.0 652.8,112.0 660.1,112.0 732.1,314.1 739.4,274.1 873.3,274.1 880.6,274.1 887.8,274.1 895.1,274.1 902.4,274.1 909.7,274.1 917.9,274.1 925.2,274.1 932.5,274.1 939.8,274.1 947.1,274.1 954.3,274.1 962.5,274.1 969.8,274.1 977.1,274.1 984.4,274.1 991.7,274.1 999.0,274.1 1007.2,153.5" fill="none" stroke="#1f77b4" stroke-width="2"/><polyline points="638.3,131.6 644.7,131.6 651.9,131.6 658.3,243.3 665.6,355.1 672.0,355.1 679.3,355.1 685.6,355.1 692.9,355.1 699.3,355.1 706.6,355.1 713.0,355.1 720.3,355.1 727.5,355.1 733.9,355.1 741.2,314.6 747.6,274.1 754.9,274.1 761.2,274.1 768.5,274.1 774.9,274.1 782.2,274.1 849.6,192.1 951.6,192.1 958.9,150.2" fill="none" stroke="#ff7f0e" stroke-width="2"/><polyline points="638.3,151.1 644.7,151.1 651.0,151.1 657.4,151.1 663.8,151.1 781.3,355.1 787.7,274.1 794.0,274.1 801.3,274.1 807.7,274.1 814.1,274.1 820.4,274.1 826.8,274.1 833.2,274.1 839.6,274.1 852.3,192.1 859.6,192.1 897.0,150.7 903.3,111.1 909.7,111.1 916.1,111.1 922.5,111.1 928.8,111.1 935.2,111.1 942.5,111.1" fill="none" stroke="#2ca02c" stroke-width="2"/><polyline points="638.3,170.7 653.8,303.9 670.2,437.0 686.6,437.0 702.9,437.0 719.3,437.0 735.7,437.0 751.2,437.0 767.6,437.0 784.0,437.0 800.4,437.0 816.8,437.0 833.2,437.0 848.7,274.1 865.1,232.2 881.5,192.1 897.9,192.1 914.3,192.1 930.7,192.1 948.9,111.1 965.3,111.1 981.7,111.1 998.1,111.1 1014.5,111.1 1032.7,111.1" fill="none" stroke="#d62728" stroke-width="2"/><rect x="590" y="65" width="470" height="420" fill="none" stroke="#333"/><text x="825" y="523" text-anchor="middle" font-family="Arial" font-size="12">False Positive Rate</text><text x="545" y="275" text-anchor="middle" font-family="Arial" font-size="12" transform="rotate(-90 545 275)">True Positive Rate</text><line x1="605" y1="85" x2="625" y2="85" stroke="#1f77b4" stroke-width="3"/><text x="632" y="89" font-family="Arial" font-size="10">RNN (0.441)</text><line x1="605" y1="107" x2="625" y2="107" stroke="#ff7f0e" stroke-width="3"/><text x="632" y="111" font-family="Arial" font-size="10">LSTM (0.600)</text><line x1="605" y1="129" x2="625" y2="129" stroke="#2ca02c" stroke-width="3"/><text x="632" y="133" font-family="Arial" font-size="10">CNN-Transformer (0.530)</text><line x1="605" y1="151" x2="625" y2="151" stroke="#d62728" stroke-width="3"/><text x="632" y="155" font-family="Arial" font-size="10">LSTM-Transformer (0.409)</text></svg>