<svg xmlns="http://www.w3.org/2000/svg" width="1100" height="570" viewBox="0 0 1100 570"><rect width="100%" height="100%" fill="white"/><text x="550" y="28" text-anchor="middle" font-family="Arial" font-size="20" font-weight="bold">Precision–Recall Curves</text><text x="295" y="55" text-anchor="middle" font-family="Arial" font-size="15" font-weight="bold">4-hour horizon</text><line x1="60" y1="65" x2="60" y2="485" stroke="#eee"/><line x1="60" y1="485" x2="530" y2="485" stroke="#eee"/><line x1="154" y1="65" x2="154" y2="485" stroke="#eee"/><line x1="60" y1="401" x2="530" y2="401" stroke="#eee"/><line x1="248" y1="65" x2="248" y2="485" stroke="#eee"/><line x1="60" y1="317" x2="530" y2="317" stroke="#eee"/><line x1="342" y1="65" x2="342" y2="485" stroke="#eee"/><line x1="60" y1="233" x2="530" y2="233" stroke="#eee"/><line x1="436" y1="65" x2="436" y2="485" stroke="#eee"/><line x1="60" y1="149" x2="530" y2="149" stroke="#eee"/><line x1="530" y1="65" x2="530" y2="485" stroke="#eee"/><line x1="60" y1="65" x2="530" y2="65" stroke="#eee"/><text x="60" y="503" text-anchor="middle" font-family="Arial" font-size="9">0.0</text><text x="154" y="503" text-anchor="middle" font-family="Arial" font-size="9">0.2</text><text x="248" y="503" text-anchor="middle" font-family="Arial" font-size="9">0.4</text><text x="342" y="503" text-anchor="middle" font-family="Arial" font-size="9">0.6</text><text x="436" y="503" text-anchor="middle" font-family="Arial" font-size="9">0.8</text><text x="530" y="503" text-anchor="middle" font-family="Arial" font-size="9">1.0</text><polyline points="99.2,435.2 119.2,435.2 132.9,431.0 145.6,418.4 159.3,415.6 172.0,434.7 185.7,410.5 198.4,405.8 219.4,435.2 232.2,435.2 250.4,434.7 263.1,433.8 276.8,431.9 290.4,435.2 311.4,435.2 327.8,151.1 341.5,190.3 354.2,435.2 375.2,435.2 396.1,435.2 420.7,435.2 440.7,435.2 461.7,435.2 481.7,435.2 502.7,435.2" fill="none" stroke="#1f77b4" stroke-width="2"/><polyline points="174.8,433.8 178.4,433.8 182.1,433.8 185.7,433.8 189.3,433.8 193.0,433.8 196.6,433.3 200.3,433.3 224.0,433.8 227.6,433.8 231.2,433.8 234.9,433.8 239.4,433.8 243.1,433.8 255.8,433.8 259.5,433.8 263.1,433.8 325.1,131.6 328.7,131.6 332.3,131.6 336.0,131.6 339.6,131.6 343.3,131.6 346.9,131.6 351.5,131.6" fill="none" stroke="#ff7f0e" stroke-width="2"/><polyline points="139.2,436.6 141.1,436.6 143.8,436.6 145.6,436.6 148.4,436.6 151.1,436.6 152.9,436.6 155.6,436.6 158.4,436.6 315.0,433.8 317.8,433.8 319.6,433.8 322.3,433.8 325.1,151.6 326.9,151.6 329.6,151.6 332.3,151.1 334.2,151.1 336.9,151.1 338.7,151.1 341.5,151.1 344.2,151.1 346.0,151.1 348.7,151.1 351.5,151.1" fill="none" stroke="#2ca02c" stroke-width="2"/><polyline points="116.5,273.6 121.0,436.6 126.5,436.1 137.4,435.2 152.0,433.8 157.5,434.2 167.5,435.6 187.5,435.2 207.6,435.6 236.7,435.2 266.8,435.2 296.8,435.6 317.8,435.6 328.7,171.2 334.2,170.7 339.6,170.7 345.1,170.7 349.7,170.7 367.0,435.2 387.0,435.2 407.0,434.7 427.1,434.7 447.1,434.7 469.0,434.7 499.0,434.7" fill="none" stroke="#d62728" stroke-width="2"/><rect x="60" y="65" width="470" height="420" fill="none" stroke="#333"/><text x="295" y="523" text-anchor="middle" font-family="Arial" font-size="12">Recall</text><text x="15" y="275" text-anchor="middle" font-family="Arial" font-size="12" transform="rotate(-90 15 275)">Precision</text><line x1="75" y1="85" x2="95" y2="85" stroke="#1f77b4" stroke-width="3"/><text x="102" y="89" font-family="Arial" font-size="10">RNN (0.028)</text><line x1="75" y1="107" x2="95" y2="107" stroke="#ff7f0e" stroke-width="3"/><text x="102" y="111" font-family="Arial" font-size="10">LSTM (0.008)</text><line x1="75" y1="129" x2="95" y2="129" stroke="#2ca02c" stroke-width="3"/><text x="102" y="133" font-family="Arial" font-size="10">CNN-Transformer (0.006)</text><line x1="75" y1="151" x2="95" y2="151" stroke="#d62728" stroke-width="3"/><text x="102" y="155" font-family="Arial" font-size="10">LSTM-Transformer (0.006)</text><text x="825" y="55" text-anchor="middle" font-family="Arial" font-size="15" font-weight="bold">8-hour horizon</text><line x1="590" y1="65" x2="590" y2="485" stroke="#eee"/><line x1="590" y1="485" x2="1060" y2="485" stroke="#eee"/><line x1="684" y1="65" x2="684" y2="485" stroke="#eee"/><line x1="590" y1="401" x2="1060" y2="401" stroke="#eee"/><line x1="778" y1="65" x2="778" y2="485" stroke="#eee"/><line x1="590" y1="317" x2="1060" y2="317" stroke="#eee"/><line x1="872" y1="65" x2="872" y2="485" stroke="#eee"/><line x1="590" y1="233" x2="1060" y2="233" stroke="#eee"/><line x1="966" y1="65" x2="966" y2="485" stroke="#eee"/><line x1="590" y1="149" x2="1060" y2="149" stroke="#eee"/><line x1="1060" y1="65" x2="1060" y2="485" stroke="#eee"/><line x1="590" y1="65" x2="1060" y2="65" stroke="#eee"/><text x="590" y="503" text-anchor="middle" font-family="Arial" font-size="9">0.0</text><text x="684" y="503" text-anchor="middle" font-family="Arial" font-size="9">0.2</text><text x="778" y="503" text-anchor="middle" font-family="Arial" font-size="9">0.4</text><text x="872" y="503" text-anchor="middle" font-family="Arial" font-size="9">0.6</text><text x="966" y="503" text-anchor="middle" font-family="Arial" font-size="9">0.8</text><text x="1060" y="503" text-anchor="middle" font-family="Arial" font-size="9">1.0</text><polyline points="629.2,436.1 643.7,436.1 662.0,436.1 680.2,436.1 693.8,436.1 713.0,436.1 731.2,436.1 749.4,436.1 764.0,436.1 783.1,436.1 801.3,436.1 820.4,436.1 835.0,436.1 853.2,436.1 865.1,274.1 876.0,151.1 891.5,436.1 906.1,436.6 924.3,436.1 942.5,436.1 961.6,436.1 976.2,436.1 995.3,436.1 1013.5,436.1 1032.7,436.1" fill="none" stroke="#1f77b4" stroke-width="2"/><polyline points="663.8,434.7 667.4,434.7 672.0,434.7 676.5,434.2 681.1,433.8 685.6,433.3 690.2,432.8 694.7,432.4 699.3,431.9 702.9,431.9 707.5,431.0 712.1,431.0 716.6,430.5 721.2,430.1 725.7,429.6 730.3,429.1 734.8,428.7 738.5,428.2 743.0,431.5 858.7,131.6 863.3,131.6 867.8,131.6 872.4,131.6 876.9,131.6 881.5,131.6" fill="none" stroke="#ff7f0e" stroke-width="2"/><polyline points="855.1,151.1 856.0,151.1 856.9,151.1 857.8,151.1 858.7,151.1 860.5,151.1 861.4,151.1 862.3,151.1 863.3,151.1 864.2,151.1 866.0,151.1 866.9,151.1 867.8,151.1 868.7,151.1 869.6,151.1 871.5,151.1 872.4,151.1 873.3,151.1 874.2,151.1 875.1,151.1 876.9,151.1 877.8,151.1 878.7,151.1 879.7,151.1 881.5,151.1" fill="none" stroke="#2ca02c" stroke-width="2"/><polyline points="646.5,273.6 665.6,436.6 677.4,436.6 696.6,436.6 715.7,436.6 727.5,436.6 747.6,436.6 776.7,436.1 797.7,436.1 826.8,436.1 846.9,436.1 856.9,303.4 862.3,170.7 866.9,303.4 871.5,170.7 876.0,170.7 880.6,170.7 897.0,435.6 908.8,435.6 927.9,435.6 947.1,436.1 958.9,436.1 978.0,435.6 999.0,435.6 1029.0,435.6" fill="none" stroke="#d62728" stroke-width="2"/><rect x="590" y="65" width="470" height="420" fill="none" stroke="#333"/><text x="825" y="523" text-anchor="middle" font-family="Arial" font-size="12">Recall</text><text x="545" y="275" text-anchor="middle" font-family="Arial" font-size="12" transform="rotate(-90 545 275)">Precision</text><line x1="605" y1="85" x2="625" y2="85" stroke="#1f77b4" stroke-width="3"/><text x="632" y="89" font-family="Arial" font-size="10">RNN (0.004)</text><line x1="605" y1="107" x2="625" y2="107" stroke="#ff7f0e" stroke-width="3"/><text x="632" y="111" font-family="Arial" font-size="10">LSTM (0.010)</text><line x1="605" y1="129" x2="625" y2="129" stroke="#2ca02c" stroke-width="3"/><text x="632" y="133" font-family="Arial" font-size="10">CNN-Transformer (0.004)</text><line x1="605" y1="151" x2="625" y2="151" stroke="#d62728" stroke-width="3"/><text x="632" y="155" font-family="Arial" font-size="10">LSTM-Transformer (0.003)</text></svg>